<?xml version="1.0" standalone="no"?>
<!DOCTYPE svg PUBLIC "-//W3C//DTD SVG 20010904//EN"
 "http://www.w3.org/TR/2001/REC-SVG-20010904/DTD/svg10.dtd">
<svg version="1.0" xmlns="http://www.w3.org/2000/svg"
 width="1080.000000pt" height="1080.000000pt" viewBox="0 0 1080.000000 1080.000000"
 preserveAspectRatio="xMidYMid meet">
<metadata>
Created by potrace 1.14, written by Peter Selinger 2001-2017
</metadata>
<g transform="translate(0.000000,1080.000000) scale(0.100000,-0.100000)"
fill="#000000" stroke="none">
<path d="M5210 10463 c-196 -7 -508 -52 -721 -103 -1289 -313 -2333 -1279
-2750 -2542 -67 -202 -122 -445 -153 -666 -54 -388 -34 -913 50 -1317 109
-517 328 -1016 637 -1448 48 -67 743 -995 1545 -2062 921 -1227 1469 -1948
1491 -1962 44 -30 132 -32 178 -4 32 20 2889 3815 3064 4071 377 550 591 1123
671 1795 17 144 17 653 0 800 -90 778 -382 1473 -862 2050 -489 589 -1162
1030 -1893 1239 -422 122 -797 166 -1257 149z m580 -713 c398 -57 767 -175
1095 -352 703 -379 1241 -1014 1494 -1766 172 -512 212 -1095 110 -1617 -112
-570 -396 -1115 -810 -1559 -163 -175 -441 -397 -659 -526 -373 -222 -744
-354 -1180 -421 -123 -19 -188 -23 -430 -23 -185 -1 -322 4 -390 12 -835 108
-1566 518 -2095 1177 -228 283 -445 704 -549 1061 -93 324 -120 523 -120 909
-1 262 2 318 22 440 91 581 323 1096 696 1549 115 141 378 391 520 498 319
238 659 409 1019 512 213 61 458 106 647 120 99 7 553 -3 630 -14z"/>
<path d="M5430 8524 c-8 -4 -620 -231 -1360 -506 -740 -275 -1363 -508 -1386
-519 -83 -39 -107 -139 -50 -213 23 -31 57 -46 356 -157 l330 -122 0 -549 c0
-520 1 -551 19 -586 48 -93 187 -98 241 -9 19 31 20 54 20 536 0 398 3 502 13
499 6 -3 72 -27 145 -54 l132 -49 0 -50 0 -50 789 -297 790 -296 633 257 c348
141 704 286 791 320 l157 63 0 42 0 41 546 215 c488 192 549 218 571 247 56
73 31 177 -50 213 -177 77 -2607 1023 -2635 1026 -21 2 -44 1 -52 -2z"/>
<path d="M6965 6377 c-38 -16 -382 -152 -763 -303 -482 -191 -705 -274 -732
-274 -32 0 -846 299 -1453 534 -66 25 -121 46 -124 46 -3 0 -3 -120 0 -267 4
-223 9 -285 27 -368 104 -484 396 -865 829 -1080 372 -185 832 -215 1237 -80
521 173 906 605 1025 1150 18 84 22 142 26 360 3 143 3 272 1 286 l-3 26 -70
-30z"/>
</g>
</svg>
